<svg version="1.1" id="Layer_1" xmlns="http://www.w3.org/2000/svg" width="300px" height="134.311px">
<rect fill="#002F87" width="300" height="134.311"/>
<path fill="#FFFFFF" d="M54.432,67.667h-8.083l4.304-14.044L54.432,67.667z M42.159,83.155l2.755-9.229h10.895l2.58,9.229h10.094
	L58.455,47.948c-0.577-2.079-1.837-3.042-4.023-3.042H40.156v3.325h1.199c1.492,0,2.299,0.583,2.299,1.726
	c0,0.747-0.168,1.375-0.759,3.091L32.856,83.155H42.159z M80.107,83.155V47.837c0-1.839-1.079-2.931-2.861-2.931h-8.828v3.325h0.575
	c1.486,0,2.116,0.632,2.116,2.137v32.787H80.107z M95.413,83.155V47.837c0-1.839-1.094-2.931-2.866-2.931H83.72v3.325h0.56
	c1.498,0,2.129,0.632,2.129,2.137v32.787H95.413z M111.113,48.397c0-2.564-1.897-4.115-5.158-4.115c-3.209,0-5.171,1.55-5.171,4.115
	c0,2.593,1.962,4.132,5.171,4.132C109.215,52.529,111.113,50.99,111.113,48.397 M110.945,83.155V57.408
	c0-1.835-1.096-2.919-2.874-2.919h-8.713v3.261h0.513c1.492,0,2.122,0.686,2.122,2.18v23.226H110.945z M130.654,69.385v5.571
	c-1.498,1.551-3.323,2.479-4.869,2.479c-1.615,0-2.18-0.792-2.18-2.94c0-2.124,0.45-3.087,2.059-3.713
	C126.863,70.261,128.416,69.802,130.654,69.385 M118.544,62.693c2.987-1.434,6.258-2.239,8.834-2.239
	c2.416,0,3.276,0.86,3.276,3.368v0.64c-3.668,0.579-4.814,0.815-6.884,1.271c-1.191,0.281-2.299,0.62-3.385,1.084
	c-3.619,1.449-5.328,4.243-5.328,8.539c0,5.449,2.348,8.081,7.219,8.081c1.778,0,3.387-0.341,4.824-0.908
	c1.256-0.558,2.003-1.027,3.842-2.461v0.399c0,1.774,0.913,2.688,2.697,2.688h8.196v-3.087h-0.404c-1.544,0-2.116-0.694-2.116-2.521
	V63.89c0-7.278-2.525-9.815-9.816-9.815c-2.346,0-4.639,0.3-6.868,0.813c-2.247,0.511-3.399,0.971-6.081,2.295L118.544,62.693z
	 M154.894,83.155V63.773c1.497-1.665,3.04-2.416,4.818-2.416c1.899,0,2.352,0.751,2.352,3.633v18.165h8.945V63.662
	c0-4.536-0.332-5.969-1.771-7.507c-1.206-1.33-3.039-2.009-5.398-2.009c-3.502,0-5.965,1.086-9.274,4.183v-1.143
	c0-1.786-0.932-2.697-2.763-2.697h-8.495v3.261h0.515c1.492,0,2.129,0.686,2.129,2.18v23.226H154.894z M197.551,77.135h-12.502
	l11.931-16.734v-5.917h-18.689c-2.124,0-3.097,0.973-3.097,3.099v5.21h3.323v-0.511c0-1.316,0.687-1.948,2.113-1.948h6.432
	l-12.046,16.918v5.901h22.535V77.135z"/>
<path fill="#FFFFFF" d="M248.242,82.423h8.424v-25.24c0-2.531-0.975-3.446-3.445-3.446h-4.979V82.423z M244.501,82.423V50.017
	c0-2.582-0.917-3.45-3.427-3.45h-7.584v3.618h0.453c1.733,0,2.068,0.39,2.068,2.475v29.764H244.501z M232.29,82.423V53.738h-4.99
	c-2.467,0-3.436,0.915-3.436,3.446v25.24H232.29z"/>
<path fill="#FFFFFF" d="M264.635,65.953c0,14.279-10.265,24.661-24.372,24.661c-14.106,0-24.375-10.382-24.375-24.661
	c0-14.284,10.269-24.667,24.375-24.667C254.371,41.287,264.635,51.735,264.635,65.953 M269.624,65.953
	c0-16.792-12.561-29.366-29.36-29.366c-16.808,0-29.365,12.574-29.365,29.366c0,16.812,12.558,29.356,29.365,29.356
	C257.063,95.309,269.624,82.765,269.624,65.953"/>
</svg>
