<?xml version="1.0" encoding="UTF-8" standalone="no"?>
<!-- Created with Inkscape (http://www.inkscape.org/) -->
<svg
   xmlns:svg="http://www.w3.org/2000/svg"
   xmlns="http://www.w3.org/2000/svg"
   version="1.0"
   width="749"
   height="245"
   viewBox="-0.374 -0.184 749 245"
   id="svg2"
   xml:space="preserve">
	<defs
   id="defs4">
	</defs>
	<g
   id="g6">
		<path
   d="M 748.345,65.921 L 733.656,95.9 C 716.886,94.688 706.086,87.554 706.086,87.554 L 695.014,108.886 L 695.014,193.221 L 660.379,200.651 L 660.383,89.75 L 644.346,82.491 L 658.323,53.977 L 695.014,70.477 L 695.014,79.358 C 695.014,82.341 694.856,85.304 694.856,85.304 C 694.961,85.363 696.331,82.048 697.528,79.596 L 710.02,53.977 C 710.019,53.977 726.941,64.197 748.345,65.921 z "
   style="fill:#056878"
   id="path8" />
		<path
   d="M 282.489,84.438 L 262.229,84.438 L 274.721,56.969 L 282.489,56.969 L 282.489,46.456 L 317.223,27.509 L 317.223,56.97 L 339.608,56.97 L 327.169,84.439 L 317.224,84.439 L 317.224,160.646 C 324.63,166.531 338.689,170.649 338.689,170.499 L 323.871,200.643 C 323.871,200.643 297.656,192.977 282.49,179.467 L 282.49,84.438 L 282.489,84.438 z "
   style="fill:#056878"
   id="path10" />
		<path
   d="M 436.828,227.229 L 402.199,243.961 L 402.199,92.323 L 390.293,86.697 L 381.676,103.056 L 381.676,192.975 L 347.043,200.65 L 347.045,39.197 C 347.045,29.257 344.461,17.292 344.461,17.292 L 377.273,0 C 377.273,0 381.679,11.061 381.675,28.699 L 381.671,74.946 C 381.671,78.565 381.495,80.831 381.495,80.831 C 381.643,80.876 382.956,77.648 384.175,75.155 L 394.503,53.976 L 436.827,73.059 L 436.827,227.229 L 436.828,227.229 z "
   style="fill:#056878"
   id="path12" />
		<path
   d="M 85.653,85.366 L 117.882,61.046 C 137.195,65.354 158.53,90.696 158.53,120.727 C 158.53,150.598 152.816,165.068 152.816,165.068 L 106.636,199.541 C 106.636,199.541 97.045,200.651 84.943,200.651 C 19.906,200.65 0,153.241 0,116.642 C 0,93.265 6.797,81.802 6.797,81.802 L 40.595,57.263 L 37.393,45.812 L 90.085,6.708 C 118.764,19.481 156.024,24.71 156.024,24.71 L 119.836,51.645 C 119.836,51.645 95.393,47.53 74.779,37.402 C 73.021,36.528 71.275,35.506 71.275,35.506 C 71.174,35.583 71.821,37.51 72.379,39.445 L 85.653,85.366 z M 43.846,68.64 C 43.846,68.64 43.194,70.726 41.996,73.817 C 40.004,79.351 37.17,89.382 37.17,101.689 C 37.17,152.71 66.772,175.585 104.054,175.585 C 112.801,175.585 116.452,173.975 116.452,173.975 C 116.452,173.975 121.658,158.541 121.658,138.078 C 121.658,107.556 108.917,93.719 100.553,90.662 L 89.427,98.59 L 100.553,138.811 L 69.519,161.656 L 45.15,73.634 C 44.438,71.028 44.077,68.667 44.077,68.667 L 43.846,68.64 z "
   style="fill:#056878"
   id="path14" />
		<path
   d="M 637.324,170.766 L 622.678,200.651 C 622.678,200.651 583.985,192.523 559.244,172.976 L 559.244,72.877 L 621.769,53.977 L 649.828,124.248 L 593.875,141.034 L 593.875,154.908 C 610.896,166.013 637.324,170.766 637.324,170.766 z M 612.539,120.673 L 597.9,84.192 C 595.619,78.532 593.802,73.174 593.802,73.174 C 593.632,73.223 593.874,78.942 593.874,85.326 L 593.874,126.268 L 612.539,120.673 z "
   style="fill:#056878"
   id="path16" />
		<path
   d="M 494.085,199.404 C 494.085,199.404 470.659,193.103 454.581,180.83 L 454.581,82.202 L 492.563,53.976 L 541.479,76.073 L 541.479,193.09 L 507.487,200.651 L 507.487,178.146 C 507.487,176.269 507.633,172.154 507.633,172.154 C 507.633,172.154 505.949,175.817 505.022,177.674 L 494.085,199.404 z M 507.531,169.148 L 507.531,94.992 L 489.254,86.721 L 489.254,161.437 C 497.191,167.604 507.531,169.148 507.531,169.148 z "
   style="fill:#056878"
   id="path18" />
		<path
   d="M 258.89,168.654 L 215.898,200.65 C 215.898,200.65 189.271,194.072 171.994,180.803 L 171.994,82.202 L 209.976,53.976 L 258.89,76.073 L 258.89,168.654 z M 224.901,170.349 L 224.901,94.992 L 206.624,86.721 L 206.624,162.635 C 206.624,162.636 213.257,167.963 224.901,170.349 z "
   style="fill:#056878"
   id="path20" />
	</g>
</svg>