<svg id="Logo" xmlns="http://www.w3.org/2000/svg" viewBox="0 0 1851.69 440.49"><path id="Wortmarke" d="M449.67,249.55h-24l-14.27-62.33H411q-3.75,15.22-7,31.17t-7,31.16h-24.4l-26.85-98.38h27.78l12.39,57.64h.38l13.52-57.64h24l13.52,57.64h.38l12.58-57.64h27.41ZM547,151.17h28v60.08q0,22-11.36,31.74t-33.13,9.75q-11.83,0-20-2.9a34.62,34.62,0,0,1-13.33-8.17A30.28,30.28,0,0,1,489.72,229a56.5,56.5,0,0,1-2.25-16.43v-61.4H516.2v56.88a50,50,0,0,0,.84,10.14,15.84,15.84,0,0,0,2.63,6.29,9.35,9.35,0,0,0,4.79,3.29,24.81,24.81,0,0,0,7.32.94q8.07,0,11.64-4.4T547,207.69Zm-39.42-10.88a15.94,15.94,0,0,1-11.64-4.41,15.17,15.17,0,0,1,0-21.58,15.91,15.91,0,0,1,11.64-4.42,14.91,14.91,0,0,1,11,4.42,15.41,15.41,0,0,1,0,21.58A14.94,14.94,0,0,1,507.56,140.29Zm48.44,0a16,16,0,0,1-11.65-4.41,15.18,15.18,0,0,1,0-21.58A15.92,15.92,0,0,1,556,109.87a14.88,14.88,0,0,1,11,4.42,15.39,15.39,0,0,1,0,21.58A14.91,14.91,0,0,1,556,140.29Zm82.88,8.63a43.87,43.87,0,0,1,6.2.38,36.63,36.63,0,0,1,4.69.94v26.28a41.16,41.16,0,0,0-7.6-1.88,47.52,47.52,0,0,0-6.66-.56,24.15,24.15,0,0,0-6.67.94,13.44,13.44,0,0,0-5.72,3.29,16.79,16.79,0,0,0-4,6.38,29.08,29.08,0,0,0-1.5,10v54.82H590.44V151.17h26.09v9.58a31.58,31.58,0,0,1,9.48-8.45A24.77,24.77,0,0,1,638.88,148.93Zm81.41,99.31A37.76,37.76,0,0,1,710.14,251a80.63,80.63,0,0,1-11.26.85q-14.27,0-22-6.86T669.22,224v-50.5H657.39V151.17h11.83V120.39h28v30.78H718.4v22.34H697.19v43.94q0,7.12,3,9.85a11.28,11.28,0,0,0,7.89,2.72,37.55,37.55,0,0,0,12.2-2.64Zm68.27,0A37.67,37.67,0,0,1,778.41,251a80.76,80.76,0,0,1-11.26.85q-14.27,0-22-6.86T737.49,224v-50.5H725.66V151.17h11.83V120.39h28v30.78h21.21v22.34H765.46v43.94q0,7.12,3,9.85a11.28,11.28,0,0,0,7.89,2.72,37.52,37.52,0,0,0,12.2-2.64Zm54.57-99.31q20.08,0,31.06,12.95t11,36.8c0,1.75,0,3.39-.1,4.87s-.21,3.14-.46,4.89H824.73q.37,9.2,5.16,14.64t14.36,5.45A21.64,21.64,0,0,0,856.46,225a37.09,37.09,0,0,0,8.07-6.86l16.89,18.21q-8.83,8.83-18.3,12.11a58,58,0,0,1-19.06,3.29q-12.2,0-21.12-3.57A37.73,37.73,0,0,1,808.2,238a42.59,42.59,0,0,1-8.63-15.95,71.54,71.54,0,0,1-2.81-20.75,67.26,67.26,0,0,1,3.19-21.4,47.52,47.52,0,0,1,9.29-16.52,41.56,41.56,0,0,1,14.64-10.7A47.41,47.41,0,0,1,843.13,148.93Zm-1.5,22.33a16.15,16.15,0,0,0-7.32,1.51,14.58,14.58,0,0,0-5,3.94,18.94,18.94,0,0,0-3.1,5.63,29.93,29.93,0,0,0-1.5,6.77h33.41q-.19-7.88-4.32-12.86T841.62,171.26Zm171.89,78.29V193.8q0-12-3.76-16.15c-2.51-2.74-6.32-4.13-11.45-4.13s-8.7,1.54-11.07,4.6-3.57,8.17-3.57,15.3v56.13h-28V193q0-10.9-3.57-15.2T941,173.52q-7.69,0-11.44,4.7t-3.75,15.39v55.95h-28V151.17H924V160a28.69,28.69,0,0,1,11.17-8.16,35,35,0,0,1,13.8-2.91q19.53,0,26.85,13.52a65,65,0,0,1,5.63-5.34,31.27,31.27,0,0,1,6.75-4.33A39.53,39.53,0,0,1,996.7,150a51.13,51.13,0,0,1,10.8-1q9.38,0,15.67,2.72a25.51,25.51,0,0,1,10.14,7.6,30.35,30.35,0,0,1,5.54,11.74,63.28,63.28,0,0,1,1.69,15.12v63.45Zm130.89-49.19a75.34,75.34,0,0,1-2.63,20.46,50.63,50.63,0,0,1-7.6,16.24,36.56,36.56,0,0,1-12.21,10.8,33.48,33.48,0,0,1-16.24,3.95,34.91,34.91,0,0,1-13.7-2.54,29.79,29.79,0,0,1-10.14-6.86l-.94,7.14h-24.59V120.39h27.4v36a35.93,35.93,0,0,1,9.2-5.07,37.14,37.14,0,0,1,14.07-2.44,36.58,36.58,0,0,1,14.27,2.82,31.19,31.19,0,0,1,11.92,8.92,44.5,44.5,0,0,1,8.16,15.86Q1144.39,186.28,1144.39,200.36Zm-27.6-.94q0-13.51-4.59-20.08a14.31,14.31,0,0,0-12.3-6.57,21.81,21.81,0,0,0-8.93,1.78,25.65,25.65,0,0,0-7.23,4.79v41.31a30.51,30.51,0,0,0,6.86,4.87,18.87,18.87,0,0,0,9.3,2.44,14.23,14.23,0,0,0,12.48-6.47Q1116.8,215,1116.8,199.42Zm84-50.5q20.08,0,31.07,12.95t11,36.8c0,1.75,0,3.39-.09,4.87s-.22,3.14-.47,4.89h-59.88q.37,9.2,5.16,14.64t14.36,5.45a21.69,21.69,0,0,0,12.22-3.48,37,37,0,0,0,8.07-6.86l16.89,18.21q-8.83,8.83-18.3,12.11a58,58,0,0,1-19.06,3.29q-12.2,0-21.11-3.57A37.77,37.77,0,0,1,1165.89,238a42.51,42.51,0,0,1-8.62-15.95,71.21,71.21,0,0,1-2.82-20.75,67.4,67.4,0,0,1,3.19-21.4,47.37,47.37,0,0,1,9.3-16.52,41.5,41.5,0,0,1,14.64-10.7A47.39,47.39,0,0,1,1200.81,148.93Zm-1.5,22.33a16.14,16.14,0,0,0-7.31,1.51,14.61,14.61,0,0,0-5,3.94,18.94,18.94,0,0,0-3.11,5.63,29.39,29.39,0,0,0-1.49,6.77h33.41q-.19-7.88-4.32-12.86T1199.31,171.26ZM1304,148.93a43.76,43.76,0,0,1,6.19.38,36.52,36.52,0,0,1,4.7.94v26.28a41,41,0,0,0-7.61-1.88,47.41,47.41,0,0,0-6.66-.56,24.24,24.24,0,0,0-6.67.94,13.53,13.53,0,0,0-5.72,3.29,16.84,16.84,0,0,0-3.94,6.38,29,29,0,0,0-1.49,10v54.82h-27.23V151.17h26.09v9.58a31.76,31.76,0,0,1,9.48-8.45A24.8,24.8,0,0,1,1304,148.93Zm104.13,94a94.1,94.1,0,0,1-1.79,19.35,32.7,32.7,0,0,1-6.57,14.27,29.27,29.27,0,0,1-13.23,8.82q-8.44,3-21.58,3a82.3,82.3,0,0,1-21.87-3,64.31,64.31,0,0,1-18.87-8.25l9.2-20.27a102.59,102.59,0,0,0,15,6.75,48.89,48.89,0,0,0,16.53,2.82q9.38,0,12.67-4.41c2.19-2.95,3.29-7.54,3.29-13.8v-5.82a23.36,23.36,0,0,1-8.26,5.26,33.69,33.69,0,0,1-12,1.88,44,44,0,0,1-15.4-2.63,32.45,32.45,0,0,1-12.58-8.45,40.43,40.43,0,0,1-8.55-15.3q-3.11-9.48-3.1-23.37a73.9,73.9,0,0,1,2.81-21.22,47.73,47.73,0,0,1,8-15.95,35.56,35.56,0,0,1,12.49-10.15,36.86,36.86,0,0,1,16.34-3.56q13.32,0,22.15,8.83v-6.58h25.34Zm-27.22-64.19a24.62,24.62,0,0,0-7.24-4.51,21,21,0,0,0-8.16-1.87q-8.44,0-12.67,6.47t-4.23,20.37q0,27.22,16.34,27.22a23.71,23.71,0,0,0,9.57-1.68,26.4,26.4,0,0,0,6.39-4Zm169.19,40.92a34.53,34.53,0,0,1-2.81,14.55,25.51,25.51,0,0,1-8,10,35.55,35.55,0,0,1-12.3,5.72,61.19,61.19,0,0,1-15.59,1.88,85.74,85.74,0,0,1-12-.85,94.74,94.74,0,0,1-11.74-2.44,88.58,88.58,0,0,1-10.79-3.75,55.33,55.33,0,0,1-9-4.79l9-21a111.27,111.27,0,0,0,16.24,7.24,50.93,50.93,0,0,0,17.18,3.28q6,0,8.73-1.5c1.81-1,2.71-2.81,2.71-5.44s-1.41-4.82-4.22-6.2-7.72-3-14.74-4.88q-5.64-1.49-11.36-3.56a39,39,0,0,1-10.33-5.54,28.22,28.22,0,0,1-7.6-8.73q-3-5.24-3-13.52,0-14.46,10.23-22.81t29-8.35a73,73,0,0,1,21.49,3.19,55.73,55.73,0,0,1,17.56,8.63l-11.83,19.34a74.17,74.17,0,0,0-14.75-6.57,43.58,43.58,0,0,0-12.67-2.26q-10.52,0-10.52,6c0,2.5,1.42,4.38,4.23,5.64a138.92,138.92,0,0,0,14,4.87q6.58,2.08,12.48,4.41a39.47,39.47,0,0,1,10.43,6,28.19,28.19,0,0,1,7.22,8.83A26.87,26.87,0,0,1,1550.08,219.7Zm99.23,11.83a60.4,60.4,0,0,1-7.7,7.79,56.92,56.92,0,0,1-9.47,6.48,49.39,49.39,0,0,1-11.27,4.4,52.11,52.11,0,0,1-13.23,1.6,51.46,51.46,0,0,1-19.34-3.48,39.52,39.52,0,0,1-14.65-10,45.52,45.52,0,0,1-9.29-16.06,65.16,65.16,0,0,1-3.28-21.49,64.21,64.21,0,0,1,3.28-21,46.13,46.13,0,0,1,9.57-16.43,43.11,43.11,0,0,1,15.21-10.62,51.65,51.65,0,0,1,20.19-3.75,46.63,46.63,0,0,1,13.33,1.79,48.63,48.63,0,0,1,11.07,4.78,49.48,49.48,0,0,1,9,6.76,71.52,71.52,0,0,1,7.13,7.88l-17.65,17.08c-1.5-1.87-3.07-3.65-4.69-5.34a39.1,39.1,0,0,0-5.17-4.51,22.16,22.16,0,0,0-13.42-4.22,18.75,18.75,0,0,0-14.65,6.57q-5.83,6.56-5.82,21t5.82,20.94a18.85,18.85,0,0,0,14.65,6.47,23.42,23.42,0,0,0,13.32-3.75,51.54,51.54,0,0,0,10.7-9.76Zm72.75,18V195.29q0-12.57-4.13-17.18c-2.75-3.06-6.63-4.6-11.64-4.6q-8.26,0-12.39,5t-4.12,17.73v53.32h-28V120.39h28v38.86a33.61,33.61,0,0,1,11-7.41,38.34,38.34,0,0,1,15.49-2.91q18,0,25.91,10.51t7.88,30.42v59.7Zm87.58-100.62q20.08,0,31.06,12.95t11,36.8c0,1.75,0,3.39-.1,4.87a47,47,0,0,1-.47,4.89h-59.88q.38,9.2,5.16,14.64t14.37,5.45A21.65,21.65,0,0,0,1823,225a37,37,0,0,0,8.07-6.86l16.89,18.21q-8.82,8.83-18.3,12.11a57.94,57.94,0,0,1-19.05,3.29q-12.2,0-21.12-3.57A37.8,37.8,0,0,1,1774.72,238a42.67,42.67,0,0,1-8.63-15.95,71.54,71.54,0,0,1-2.81-20.75,67.11,67.11,0,0,1,3.19-21.4,47.33,47.33,0,0,1,9.29-16.52,41.5,41.5,0,0,1,14.64-10.7A47.47,47.47,0,0,1,1809.64,148.93Zm-1.5,22.33a16.18,16.18,0,0,0-7.32,1.51,14.61,14.61,0,0,0-5,3.94,18.71,18.71,0,0,0-3.1,5.63,29.93,29.93,0,0,0-1.5,6.77h33.41q-.19-7.88-4.32-12.86T1808.13,171.26Zm-368-31a15.93,15.93,0,0,1-11.64-4.4,15.2,15.2,0,0,1,0-21.61,15.9,15.9,0,0,1,11.64-4.41,14.92,14.92,0,0,1,11,4.41,15.43,15.43,0,0,1,0,21.61A14.94,14.94,0,0,1,1440.15,140.29Zm-14.27,109.34V151.19h28v98.44Z"/><g id="Bildmarke"><rect style="fill:#fff;" width="283.49" height="283.47"/><path id="Bildmarke-2" data-name="Bildmarke" style="fill:#f84914;" d="M0,0V283.47H283.49V0ZM138.78,226l12.67,14.36C147.35,247,141.18,247,141.18,247s-8.58.64-10-8.08C130.32,233.66,135,229.2,138.78,226Zm-3.15-19.7c-.15-3.14,1.62-6.6,5.42-7.24,3.43-.57,6,2.05,6.61,5.06,1.19,6.13-6.27,10.37-6.27,10.37S135.84,211,135.63,206.3ZM244.2,246.7H211.86l-14.63-64.3L183.3,246.7H171.57l-8-8.71a63.61,63.61,0,0,0,5.48-15.38h-9.14a32.35,32.35,0,0,1-3.21,8.2l-9.2-10.43s11.4-6.77,9.1-17.82c-1.41-6.83-7.94-13.34-17.74-11.77-8.1,1.3-14.11,9.45-11.91,18.83a19.4,19.4,0,0,0,5.8,9.23s-15.11,8.74-12.88,22.76a13.83,13.83,0,0,0,2,5.09H100.32l-14.61-64.3-14,64.3H39.28L15.46,151.15H45L58.5,216.67l14.61-65.52H98.7l14.89,65.39,13.6-65.39h29.31L170,216.67l14.61-65.52h25.59l14.89,65.39,13.54-65.39H268Z"/></g><path id="Slogan" d="M365.31,354.3v68.87h-8.46V354.3Zm26-1.77v27.06c3-4.33,7.77-7.28,15.15-7.28,12.3,0,17.71,7.18,17.71,19.28v31.58h-8.07v-30.5c0-8-3.74-13.08-11.31-13.08a14.05,14.05,0,0,0-13.48,8.85v34.73h-8.07V352.53Zm56.27,21V381c2.16-4.62,6.89-8.66,14.27-8.66a23,23,0,0,1,4.92.49v8.07a20.73,20.73,0,0,0-5.41-.89c-6.2,0-11.41,3.15-13.28,9.74v33.45H440V373.49Zm95-19.19v7.58H509.34v21.94h31.88v7.58H509.34v31.78h-8.46V354.3ZM552,398.48c0-15.35,8.85-26.17,21.74-26.17,13.18,0,21.15,10,21.15,25.78v2.75H560.3c.49,9.74,6.2,16.23,14.17,16.23a16.83,16.83,0,0,0,13.38-6.49l5,5.41a23.24,23.24,0,0,1-18.4,8.36C561.09,424.35,552,414.22,552,398.48Zm21.74-18.89c-7.38,0-12.49,5.8-13.38,14.66h26.37C586.28,385.59,582.34,379.59,573.78,379.59Zm33.74,32.17V352.53h8.07v58.64c0,3.35,1,5.81,4.82,5.81a17.64,17.64,0,0,0,4.72-.69v6.89a18.83,18.83,0,0,1-6.59,1.18C612.74,424.35,607.52,420.32,607.52,411.76ZM631.43,417l3.35-6.4c4.62,3.64,9.54,6.49,16.73,6.49,6,0,9.84-2.75,9.84-7.08,0-4-2.56-6.1-8.07-7.58l-7.18-2.16c-6.3-1.87-12.3-5.51-12.3-13.68s6.2-14.27,17.41-14.27a28.73,28.73,0,0,1,17.61,6.3l-3.74,6.2c-4.72-3.54-9.54-5.21-14.07-5.21-6.1,0-9,3-9,6.39,0,3.05,1.67,5.41,6.69,6.69l7.28,2.07c8.17,2.26,13.58,6.59,13.58,14.76,0,8.66-6.89,14.86-18,14.86C642.45,424.35,636,420.42,631.43,417Zm74.37-58.34a5.66,5.66,0,1,1,11.31,0,5.66,5.66,0,1,1-11.31,0Zm9.74,14.86v49.68h-8.07V373.49Zm23.81,0v6.79a18.57,18.57,0,0,1,15.64-8c12.3,0,17.71,7.18,17.71,19.28v31.58h-8.07v-30.5c0-8-3.74-13.08-11.31-13.08a14.05,14.05,0,0,0-13.48,8.85v34.73h-8.07V373.49Zm113.63-21v70.64H845.4v-6.4c-2.46,4-7.18,7.58-14.66,7.58-10.72,0-20.27-8.26-20.27-26s9.54-26.07,20.27-26.07c7.08,0,11.71,3.34,14.17,7.18v-27Zm-8.07,35a14,14,0,0,0-12.89-8c-7.67,0-13.28,6.3-13.28,18.79s5.61,18.69,13.28,18.69a14,14,0,0,0,12.89-8Zm21.44,10.92c0-15.35,8.85-26.17,21.74-26.17,13.18,0,21.15,10,21.15,25.78v2.75H874.62c.49,9.74,6.2,16.23,14.17,16.23a16.83,16.83,0,0,0,13.38-6.49l5,5.41a23.24,23.24,0,0,1-18.4,8.36C875.41,424.35,866.36,414.22,866.36,398.48Zm21.74-18.89c-7.38,0-12.49,5.8-13.38,14.66h26.37C900.59,385.59,896.66,379.59,888.1,379.59Zm41.61-6.1V381c2.16-4.62,6.89-8.66,14.27-8.66a23,23,0,0,1,4.92.49v8.07a20.73,20.73,0,0,0-5.41-.89c-6.2,0-11.41,3.15-13.28,9.74v33.45h-8.07V373.49ZM983,423.17V354.3h25.48c12.1,0,20.86,6.89,20.86,18.4a15.84,15.84,0,0,1-9.44,15c7.08,2.56,11.9,8.17,11.9,16.43,0,11.51-8.76,19.09-21,19.09Zm37.58-50.08c0-7-4.43-11.22-13.38-11.22H991.49v22.43h15.74C1016.19,384.31,1020.62,380.18,1020.62,373.1Zm2.46,30.7c0-7.08-4.53-11.9-13.48-11.9h-18.1V415.6h18.1C1018.55,415.6,1023.07,410.78,1023.07,403.79Zm30-30.3V381c2.16-4.62,6.89-8.66,14.27-8.66a23,23,0,0,1,4.92.49v8.07a20.73,20.73,0,0,0-5.41-.89c-6.2,0-11.41,3.15-13.28,9.74v33.45h-8.07V373.49Zm24.2,35.81c0-11.71,10.63-18.1,31.38-18.1v-1.77c0-6.3-2.56-9.84-9.54-9.84a23.29,23.29,0,0,0-14.86,5.61l-3.74-5.9c4.72-3.64,11.31-7,19.09-7,11.71,0,17.12,5.9,17.12,17.51v33.35H1109v-5.51c-2.56,3.25-8.26,6.69-16,6.69C1084.07,424.35,1077.28,419.43,1077.28,409.3Zm31.38,1.28V397.69c-15.15,0-23.42,4.13-23.42,11.61,0,5.21,3.54,8,8.56,8C1099.91,417.27,1105.71,414.42,1108.66,410.58ZM1140,373.49v6.79a18.57,18.57,0,0,1,15.64-8c12.3,0,17.71,7.18,17.71,19.28v31.58h-8.07v-30.5c0-8-3.74-13.08-11.31-13.08a14.05,14.05,0,0,0-13.48,8.85v34.73h-8.07V373.49Zm88.94-21v70.64h-7.58v-6.4c-2.46,4-7.18,7.58-14.66,7.58-10.72,0-20.27-8.26-20.27-26s9.54-26.07,20.27-26.07c7.08,0,11.71,3.34,14.17,7.18v-27Zm-8.07,35a14,14,0,0,0-12.89-8c-7.67,0-13.28,6.3-13.28,18.79s5.61,18.69,13.28,18.69a14,14,0,0,0,12.89-8Zm23.81,15.74V373.49h8.07v28.92c0,10,4.23,14.66,12.2,14.66s12.2-4.62,12.2-14.66V373.49h8.07V403.3c0,14.27-8.56,21.05-20.27,21.05S1244.72,417.57,1244.72,403.3Zm63.85-29.81v6.79a18.57,18.57,0,0,1,15.64-8c12.3,0,17.71,7.18,17.71,19.28v31.58h-8.07v-30.5c0-8-3.74-13.08-11.31-13.08a14.05,14.05,0,0,0-13.48,8.85v34.73H1301V373.49ZM1357,433.8l3.35-6.1a26.21,26.21,0,0,0,16.53,5.51c7.87,0,11.81-4.23,11.81-12.59v-6.69c-2.46,3.84-7,6.89-13.77,6.89-10.72,0-19.87-7.58-19.87-24.3,0-16.53,9.15-24.2,19.87-24.2,6.79,0,11.61,3.34,14.07,7.18v-6h7.77v46.83c0,12.69-7.28,20.17-19.87,20.17A33.25,33.25,0,0,1,1357,433.8Zm31.68-28.24v-18a13.64,13.64,0,0,0-12.5-8c-7.58,0-12.89,5.71-12.89,16.92s5.31,17,12.89,17A13.75,13.75,0,0,0,1388.65,405.56Zm22.13,11.71a7.08,7.08,0,0,1,14.17,0,7.09,7.09,0,0,1-14.17,0Z"/></svg>