<svg id="Capa_1" enable-background="new 0 0 512 512" height="512" viewBox="0 0 512 512" width="512" xmlns="http://www.w3.org/2000/svg"><g><g><path d="m326 512h-260c-24.813 0-45-20.187-45-45v-362c0-24.813 20.187-45 45-45h260c24.813 0 45 20.187 45 45v362c0 24.813-20.187 45-45 45z" fill="#d8aa5c"/><path d="m326 60h-130v452h130c24.813 0 45-20.187 45-45v-362c0-24.813-20.187-45-45-45z" fill="#c8661c"/><path d="m66 90c-8.271 0-15 6.729-15 15v362c0 8.271 6.729 15 15 15h260c8.271 0 15-6.729 15-15v-362c0-8.271-6.729-15-15-15z" fill="#f5f5ff"/><path d="m326 90h-130v392h130c8.271 0 15-6.729 15-15v-362c0-8.271-6.729-15-15-15z" fill="#e2e7fa"/><path d="m286 120h-180c-8.284 0-15-6.716-15-15v-50c0-8.284 6.716-15 15-15 16.656 0 31.11-11.285 35.149-27.443l.3-1.197c1.67-6.677 7.669-11.36 14.551-11.36h80c6.882 0 12.881 4.683 14.551 11.359l.299 1.194c4.04 16.162 18.494 27.447 35.15 27.447 8.284 0 15 6.716 15 15v50c0 8.284-6.716 15-15 15z" fill="#fffa8c"/><path d="m286 40c-16.656 0-31.11-11.285-35.15-27.446l-.299-1.194c-1.67-6.677-7.669-11.36-14.551-11.36h-40v120h90c8.284 0 15-6.716 15-15v-50c0-8.284-6.716-15-15-15z" fill="#ffc178"/><g fill="#6b61b1"><path d="m119.284 236.568c-3.839 0-7.677-1.464-10.606-4.394l-28.284-28.284c-5.858-5.858-5.858-15.355 0-21.213 5.857-5.858 15.355-5.858 21.213 0l17.678 17.677 45.962-45.961c5.858-5.858 15.355-5.857 21.213 0 5.858 5.858 5.858 15.355 0 21.213l-56.569 56.568c-2.929 2.93-6.769 4.394-10.607 4.394z"/><path d="m119.284 343.284c-3.839 0-7.677-1.464-10.606-4.394l-28.284-28.284c-5.858-5.858-5.858-15.355 0-21.213 5.857-5.858 15.355-5.858 21.213 0l17.678 17.677 45.962-45.961c5.858-5.858 15.355-5.858 21.213 0s5.858 15.355 0 21.213l-56.569 56.568c-2.929 2.929-6.769 4.394-10.607 4.394z"/><path d="m119.284 450c-3.839 0-7.677-1.464-10.606-4.394l-28.284-28.284c-5.858-5.858-5.858-15.355 0-21.213 5.857-5.858 15.355-5.858 21.213 0l17.678 17.677 45.962-45.961c5.858-5.858 15.355-5.858 21.213 0s5.858 15.355 0 21.213l-56.569 56.568c-2.929 2.929-6.769 4.394-10.607 4.394z"/></g></g><g><path d="m376 450c-1.452 0-2.904-.211-4.31-.633-32.235-9.67-59.893-29.054-79.982-56.054-20.089-27.001-30.708-59.062-30.708-92.716v-85.597c0-8.284 6.716-15 15-15 18.955 0 35.996-10.532 44.472-27.485l2.111-4.222c2.541-5.083 7.735-8.293 13.417-8.293h80c5.682 0 10.876 3.21 13.417 8.292l2.111 4.223c8.476 16.953 25.517 27.485 44.472 27.485 8.284 0 15 6.716 15 15v85.597c0 33.654-10.619 65.715-30.708 92.716-20.089 27-47.747 46.384-79.982 56.054-1.406.422-2.858.633-4.31.633z" fill="#9ddff6"/><path d="m476 200c-18.955 0-35.996-10.532-44.472-27.484l-2.111-4.223c-2.541-5.083-7.735-8.293-13.417-8.293h-40v290c1.452 0 2.904-.211 4.31-.633 32.235-9.67 59.893-29.054 79.982-56.054 20.089-27.001 30.708-59.062 30.708-92.716v-85.597c0-8.284-6.716-15-15-15z" fill="#6ba7ff"/><path d="m291 228.603v71.995c0 54.256 33.971 101.385 85 118.66 51.029-17.275 85-64.404 85-118.66v-71.995c-22.701-4.285-42.437-18.2-54.125-38.603h-61.75c-11.688 20.403-31.424 34.318-54.125 38.603z" fill="#f5f5ff"/><path d="m406.875 190h-30.875v229.257c51.029-17.275 85-64.404 85-118.66v-71.995c-22.701-4.284-42.437-18.2-54.125-38.602z" fill="#e2e7fa"/><path d="m361.858 348.284c-3.839 0-7.678-1.464-10.606-4.394l-28.284-28.284c-5.858-5.858-5.858-15.355 0-21.213 5.857-5.858 15.355-5.858 21.213 0l17.678 17.677 45.962-45.961c5.857-5.858 15.355-5.858 21.213 0s5.858 15.355 0 21.213l-56.568 56.568c-2.93 2.93-6.769 4.394-10.608 4.394z" fill="#6b61b1"/><path d="m407.82 266.109-31.82 31.82v42.426l53.033-53.033c5.858-5.858 5.858-15.355 0-21.213s-15.356-5.858-21.213 0z" fill="#453d81"/></g></g></svg>