<svg id="Capa_1" enable-background="new 0 0 512 512" height="512" viewBox="0 0 512 512" width="512" xmlns="http://www.w3.org/2000/svg"><g><path d="m362 142h-47v295c0 8.284 6.716 15 15 15h167c8.284 0 15-6.716 15-15v-125z" fill="#00cb75"/><path d="m417 142h-55v155c0 8.284 6.716 15 15 15h135v-75c0-52.383-42.617-95-95-95z" fill="#e2e7fa"/><path d="m330 452h-315c-8.284 0-15-6.716-15-15v-100c0-8.284 6.716-15 15-15h300c8.284 0 15 6.716 15 15z" fill="#9ddff6"/><path d="m315 322h-150v130h165v-115c0-8.284-6.716-15-15-15z" fill="#6ba7ff"/><path d="m315 102h-300c-8.284 0-15 6.716-15 15v220h330v-220c0-8.284-6.716-15-15-15z" fill="#6b61b1"/><path d="m315 102h-150v235h165v-220c0-8.284-6.716-15-15-15z" fill="#453d81"/><g><path d="m165 290c-1.452 0-2.904-.211-4.31-.633-32.235-9.67-59.893-29.054-79.982-56.054-20.089-27.001-30.708-59.062-30.708-92.716v-85.597c0-8.284 6.716-15 15-15 18.955 0 35.996-10.532 44.472-27.485l2.111-4.222c2.541-5.083 7.735-8.293 13.417-8.293h80c5.682 0 10.876 3.21 13.417 8.292l2.111 4.223c8.476 16.953 25.517 27.485 44.472 27.485 8.284 0 15 6.716 15 15v85.597c0 33.654-10.619 65.715-30.708 92.716-20.089 27-47.747 46.384-79.982 56.054-1.406.422-2.858.633-4.31.633z" fill="#9ddff6"/><path d="m265 40c-18.955 0-35.996-10.532-44.472-27.484l-2.111-4.223c-2.541-5.083-7.735-8.293-13.417-8.293h-40v290c1.452 0 2.904-.211 4.31-.633 32.235-9.67 59.893-29.054 79.982-56.054 20.089-27.001 30.708-59.062 30.708-92.716v-85.597c0-8.284-6.716-15-15-15z" fill="#6ba7ff"/><path d="m80 68.603v71.995c0 54.256 33.971 101.385 85 118.66 51.029-17.275 85-64.404 85-118.66v-71.995c-22.701-4.285-42.437-18.2-54.125-38.603h-61.75c-11.688 20.403-31.424 34.318-54.125 38.603z" fill="#f5f5ff"/><path d="m195.875 30h-30.875v229.257c51.029-17.275 85-64.404 85-118.66v-71.994c-22.701-4.285-42.437-18.201-54.125-38.603z" fill="#e2e7fa"/><path d="m150.858 188.284c-3.839 0-7.678-1.464-10.606-4.394l-28.284-28.284c-5.858-5.858-5.858-15.355 0-21.213 5.857-5.858 15.355-5.858 21.213 0l17.678 17.677 45.962-45.961c5.857-5.858 15.355-5.858 21.213 0s5.858 15.355 0 21.213l-56.568 56.568c-2.93 2.93-6.769 4.394-10.608 4.394z" fill="#6b61b1"/><path d="m196.82 106.109-31.82 31.82v42.426l53.033-53.033c5.858-5.858 5.858-15.355 0-21.213s-15.356-5.858-21.213 0z" fill="#453d81"/></g><g><circle cx="100" cy="452" fill="#6b61b1" r="60"/><path d="m100 392v120c33.084 0 60-26.916 60-60s-26.916-60-60-60z" fill="#453d81"/><circle cx="100" cy="452" fill="#f5f5ff" r="30"/><path d="m100 422v60c16.542 0 30-13.458 30-30s-13.458-30-30-30z" fill="#e2e7fa"/></g><g><circle cx="412" cy="452" fill="#6b61b1" r="60"/><path d="m412 392v120c33.084 0 60-26.916 60-60s-26.916-60-60-60z" fill="#453d81"/><circle cx="412" cy="452" fill="#f5f5ff" r="30"/><path d="m412 422v60c16.542 0 30-13.458 30-30s-13.458-30-30-30z" fill="#e2e7fa"/></g></g></svg>