<svg id="Capa_1" enable-background="new 0 0 512 512" height="512" viewBox="0 0 512 512" width="512" xmlns="http://www.w3.org/2000/svg"><path d="m256 194.213 8.322-12.123v-141.84l-8.322-12.447h-210.916c-24.859 0-45.084 20.225-45.084 45.084v106.072 5.975l15.136 9.278h240.864z" fill="#141a1a"/><path d="m0 327.066v6.533 105.514c0 24.859 20.225 45.084 45.084 45.084h210.916l8.466-15.866v-139.058l-8.466-12.77h-248.439z" fill="#ffcb24"/><path d="m512 194.213v-121.326c0-24.859-20.225-45.084-45.084-45.084h-210.916v166.41z" fill="#040505"/><path d="m267.58 316.503-11.58 10.563v157.131h210.916c24.859 0 45.084-20.225 45.084-45.084v-106.553-5.494l-9.009-10.563z" fill="#f49600"/><path d="m256 184.934h-256v142.132h256l8.322-6.925v-129.425z" fill="#f40055"/><path d="m256 184.934h256v142.131h-256z" fill="#c20044"/></svg>