<svg id="Capa_1" enable-background="new 0 0 512 512" height="512" viewBox="0 0 512 512" width="512" xmlns="http://www.w3.org/2000/svg"><g><g><path d="m111 15v117l70-61v-56c0-8.284-6.716-15-15-15h-40c-8.284 0-15 6.716-15 15z" fill="#c8661c"/><path d="m256 7-180 146v258c0 8.284 6.716 15 15 15h330c8.284 0 15-6.716 15-15v-258z" fill="#f5f5ff"/><path d="m421 426c8.284 0 15-6.716 15-15v-258l-180-146v419z" fill="#e2e7fa"/><path d="m475.991 206c-3.287 0-6.595-1.075-9.361-3.288l-210.63-168.503-210.629 168.504c-6.47 5.175-15.909 4.125-21.083-2.342-5.175-6.469-4.126-15.909 2.342-21.083l220-176c5.479-4.383 13.263-4.383 18.741 0l220 176c6.469 5.175 7.518 14.614 2.342 21.083-2.963 3.703-7.322 5.629-11.722 5.629z" fill="#d8aa5c"/><path d="m466.629 202.713c2.766 2.213 6.075 3.288 9.361 3.288 4.4 0 8.76-1.927 11.722-5.63 5.175-6.469 4.126-15.909-2.342-21.083l-220-176c-2.739-2.192-6.054-3.288-9.37-3.288v34.209z" fill="#c8661c"/><path d="m256 160c-19.299 0-35-15.701-35-35s15.701-35 35-35 35 15.701 35 35-15.701 35-35 35z" fill="#9ddff6"/><path d="m291 125c0-19.299-15.701-35-35-35v70c19.299 0 35-15.701 35-35z" fill="#6ba7ff"/></g><g><path d="m256 512c-1.452 0-2.904-.211-4.31-.633-32.235-9.67-59.893-29.054-79.982-56.054-20.089-27.001-30.708-59.062-30.708-92.716v-85.597c0-8.284 6.716-15 15-15 18.955 0 35.996-10.532 44.472-27.485l2.111-4.222c2.541-5.083 7.735-8.293 13.417-8.293h80c5.682 0 10.876 3.21 13.417 8.292l2.111 4.223c8.476 16.953 25.517 27.485 44.472 27.485 8.284 0 15 6.716 15 15v85.597c0 33.654-10.619 65.715-30.708 92.716-20.089 27-47.747 46.384-79.982 56.054-1.406.422-2.858.633-4.31.633z" fill="#9ddff6"/><path d="m356 262c-18.955 0-35.996-10.532-44.472-27.484l-2.111-4.223c-2.541-5.083-7.735-8.293-13.417-8.293h-40v290c1.452 0 2.904-.211 4.31-.633 32.235-9.67 59.893-29.054 79.982-56.054 20.089-27.001 30.708-59.062 30.708-92.716v-85.597c0-8.284-6.716-15-15-15z" fill="#6ba7ff"/><path d="m171 290.603v71.995c0 54.256 33.971 101.385 85 118.66 51.029-17.275 85-64.404 85-118.66v-71.995c-22.701-4.285-42.437-18.2-54.125-38.603h-61.75c-11.688 20.403-31.424 34.318-54.125 38.603z" fill="#f5f5ff"/><path d="m286.875 252h-30.875v229.257c51.029-17.275 85-64.404 85-118.66v-71.995c-22.701-4.284-42.437-18.2-54.125-38.602z" fill="#e2e7fa"/><path d="m241.858 410.284c-3.839 0-7.678-1.464-10.606-4.394l-28.284-28.284c-5.858-5.858-5.858-15.355 0-21.213 5.857-5.858 15.355-5.858 21.213 0l17.678 17.677 45.962-45.961c5.857-5.858 15.355-5.858 21.213 0s5.858 15.355 0 21.213l-56.568 56.568c-2.93 2.93-6.769 4.394-10.608 4.394z" fill="#6b61b1"/><path d="m287.82 328.109-31.82 31.82v42.426l53.033-53.033c5.858-5.858 5.858-15.355 0-21.213s-15.356-5.858-21.213 0z" fill="#453d81"/></g></g></svg>