<svg id="Capa_1" enable-background="new 0 0 512 512" height="512" viewBox="0 0 512 512" width="512" xmlns="http://www.w3.org/2000/svg"><g><path d="m456 351h-180c-8.284 0-15-6.716-15-15v-50c0-57.897 47.103-105 105-105s105 47.103 105 105v50c0 8.284-6.716 15-15 15z" fill="#a2e786"/><path d="m456 351c8.284 0 15-6.716 15-15v-50c0-57.897-47.103-105-105-105v170z" fill="#00cb75"/><path d="m366 211c-35.841 0-65-29.159-65-65s29.159-65 65-65 65 29.159 65 65-29.159 65-65 65z" fill="#ffd5b2"/><path d="m431 146c0-35.841-29.159-65-65-65v130c35.841 0 65-29.159 65-65z" fill="#fac394"/><g><path d="m176 512h-120c-8.284 0-15-6.716-15-15v-120c0-8.284 6.716-15 15-15h120c8.284 0 15 6.716 15 15v120c0 8.284-6.716 15-15 15z" fill="#f5f5ff"/><path d="m176 362h-60v150h60c8.284 0 15-6.716 15-15v-120c0-8.284-6.716-15-15-15z" fill="#e2e7fa"/><path d="m176 331h-120c-8.284 0-15-6.716-15-15v-120c0-8.284 6.716-15 15-15h120c8.284 0 15 6.716 15 15v120c0 8.284-6.716 15-15 15z" fill="#f5f5ff"/><path d="m176 181h-60v150h60c8.284 0 15-6.716 15-15v-120c0-8.284-6.716-15-15-15z" fill="#e2e7fa"/><path d="m176 150h-120c-8.284 0-15-6.716-15-15v-120c0-8.284 6.716-15 15-15h120c8.284 0 15 6.716 15 15v120c0 8.284-6.716 15-15 15z" fill="#f5f5ff"/><path d="m176 0h-60v150h60c8.284 0 15-6.716 15-15v-120c0-8.284-6.716-15-15-15z" fill="#e2e7fa"/><g fill="#6b61b1"><path d="m134.284 470c-3.839 0-7.678-1.464-10.606-4.394l-28.284-28.284c-5.858-5.858-5.858-15.355 0-21.213 5.857-5.858 15.355-5.858 21.213 0l17.678 17.677 45.962-45.961c5.857-5.858 15.355-5.858 21.213 0s5.858 15.355 0 21.213l-56.568 56.568c-2.93 2.93-6.769 4.394-10.608 4.394z"/><path d="m134.284 289c-3.839 0-7.678-1.464-10.606-4.394l-28.284-28.284c-5.858-5.858-5.858-15.355 0-21.213 5.857-5.858 15.355-5.858 21.213 0l17.678 17.677 45.962-45.961c5.857-5.858 15.355-5.858 21.213 0s5.858 15.355 0 21.213l-56.568 56.568c-2.93 2.93-6.769 4.394-10.608 4.394z"/><path d="m134.284 108c-3.839 0-7.678-1.464-10.606-4.394l-28.284-28.284c-5.858-5.858-5.858-15.355 0-21.213 5.857-5.858 15.355-5.858 21.213 0l17.678 17.677 45.962-45.961c5.857-5.858 15.355-5.858 21.213 0s5.858 15.355 0 21.213l-56.568 56.568c-2.93 2.93-6.769 4.394-10.608 4.394z"/></g><path d="m134.284 470c3.839 0 7.678-1.464 10.606-4.394l56.568-56.568c5.858-5.858 5.858-15.355 0-21.213-5.857-5.858-15.355-5.858-21.213 0l-45.962 45.961-17.678-17.677c-.195-.195-.404-.366-.607-.548v42.368l7.678 7.678c2.931 2.929 6.77 4.393 10.608 4.393z" fill="#453d81"/><path d="m134.284 289c3.839 0 7.678-1.464 10.606-4.394l56.568-56.568c5.858-5.858 5.858-15.355 0-21.213-5.857-5.858-15.355-5.858-21.213 0l-45.962 45.961-17.678-17.677c-.195-.195-.404-.366-.607-.548v42.368l7.678 7.678c2.931 2.929 6.77 4.393 10.608 4.393z" fill="#453d81"/><path d="m134.284 108c3.839 0 7.678-1.464 10.606-4.394l56.568-56.568c5.858-5.858 5.858-15.355 0-21.213-5.857-5.858-15.355-5.858-21.213 0l-45.962 45.961-17.678-17.677c-.195-.195-.404-.366-.607-.548v42.368l7.678 7.678c2.931 2.929 6.77 4.393 10.608 4.393z" fill="#453d81"/></g></g></svg>