<svg id="Capa_1" enable-background="new 0 0 512 512" height="512" viewBox="0 0 512 512" width="512" xmlns="http://www.w3.org/2000/svg"><g><g><path d="m315 312h-220c-52.383 0-95 42.617-95 95v90c0 8.284 6.716 15 15 15h175l15-20 15 20h175c8.284 0 15-6.716 15-15v-90c0-52.383-42.617-95-95-95z" fill="#a2e786"/><path d="m315 312h-110v180l15 20h175c8.284 0 15-6.716 15-15v-90c0-52.383-42.617-95-95-95z" fill="#00cb75"/><path d="m190 382h30v130h-30z" fill="#f5f5ff"/><path d="m205 382h15v130h-15z" fill="#e2e7fa"/><path d="m245 246.513h-80c-8.284 0-15 6.716-15 15v57.028l55 80.459 55-80.459v-57.028c0-8.284-6.716-15-15-15z" fill="#fac394"/><path d="m245 246.513h-40v152.487l55-80.459v-57.028c0-8.284-6.716-15-15-15z" fill="#f0b47f"/><path d="m302.267 302.954-19.566-7.337c-7.535-2.825-16.029-.86-21.557 4.988l-56.144 59.394-56.145-59.394c-5.528-5.848-14.022-7.813-21.557-4.988l-19.566 7.337c-5.854 2.196-9.732 7.792-9.732 14.045v38c0 6.492 4.177 12.248 10.35 14.261l92 30c1.531.5 3.099.74 4.648.74 1.586 0 3.147-.274 4.639-.76l.014.019 92-30c6.173-2.013 10.35-7.769 10.35-14.261v-38c-.001-6.252-3.88-11.848-9.734-14.044z" fill="#f5f5ff"/><path d="m302.267 302.954-19.566-7.337c-7.535-2.825-16.029-.86-21.557 4.988l-56.144 59.394v40.001c1.585 0 3.146-.274 4.637-.76l.014.019 92-30c6.173-2.013 10.35-7.769 10.35-14.261v-38c-.001-6.252-3.88-11.848-9.734-14.044z" fill="#e2e7fa"/><g><path d="m224.812 75-124.812 44.155v65.845c0 57.897 47.103 105 105 105s105-47.103 105-105v-65.973z" fill="#ffd5b2"/><path d="m310 119.027-85.188-44.027-19.812 7.009v207.991c57.897 0 105-47.103 105-105z" fill="#fac394"/><path d="m110 0h135c35.898 0 65 29.101 65 65v54.027c-31.291 4.054-61.587-4.683-85.188-23.854-20.549 16.098-45.723 24.827-72.238 24.827h-42.574c-33.137 0-60-26.863-60-60 0-33.137 26.863-60 60-60z" fill="#c8661c"/><path d="m245 0h-40v107.698c6.964-3.481 13.602-7.661 19.812-12.525 23.6 19.171 53.896 27.908 85.188 23.854v-54.027c0-35.898-29.102-65-65-65z" fill="#8e4712"/></g></g><g><path d="m397 512c-1.452 0-2.904-.211-4.31-.633-32.235-9.67-59.893-29.054-79.982-56.055s-30.708-59.061-30.708-92.715v-75.597c0-8.284 6.716-15 15-15 18.955 0 35.996-10.532 44.472-27.485l2.111-4.223c2.542-5.082 7.735-8.292 13.417-8.292h80c5.682 0 10.875 3.21 13.417 8.292l2.111 4.223c8.476 16.953 25.517 27.485 44.472 27.485 8.284 0 15 6.716 15 15v75.597c0 33.654-10.619 65.715-30.708 92.716s-47.747 46.385-79.982 56.055c-1.406.421-2.858.632-4.31.632z" fill="#9ddff6"/><path d="m497 272c-18.955 0-35.996-10.532-44.472-27.485l-2.111-4.223c-2.542-5.082-7.735-8.292-13.417-8.292h-40v280c1.452 0 2.904-.211 4.31-.633 32.235-9.67 59.893-29.054 79.982-56.055s30.708-59.061 30.708-92.715v-75.597c0-8.284-6.716-15-15-15z" fill="#6ba7ff"/><path d="m312 300.603v61.994c0 54.257 33.971 101.386 85 118.66 51.029-17.274 85-64.403 85-118.66v-61.994c-22.701-4.284-42.437-18.2-54.125-38.603h-61.75c-11.688 20.402-31.424 34.318-54.125 38.603z" fill="#f5f5ff"/><path d="m427.875 262h-30.875v219.257c51.029-17.274 85-64.403 85-118.66v-61.994c-22.701-4.285-42.437-18.201-54.125-38.603z" fill="#e2e7fa"/><path d="m382.858 415.284c-3.839 0-7.678-1.465-10.606-4.394l-28.284-28.284c-5.858-5.857-5.858-15.355 0-21.213 5.857-5.857 15.355-5.857 21.213 0l17.678 17.678 45.962-45.962c5.857-5.857 15.355-5.857 21.213 0s5.858 15.355 0 21.213l-56.568 56.568c-2.93 2.929-6.769 4.394-10.608 4.394z" fill="#6b61b1"/><path d="m428.82 333.109-31.82 31.82v42.426l53.033-53.033c5.858-5.857 5.858-15.355 0-21.213-5.858-5.857-15.356-5.857-21.213 0z" fill="#453d81"/></g></g></svg>