<svg id="Capa_1" enable-background="new 0 0 512 512" height="512" viewBox="0 0 512 512" width="512" xmlns="http://www.w3.org/2000/svg"><g><g><circle cx="297" cy="125" fill="#fffa8c" r="125"/><path d="m422 125c0-68.925-56.075-125-125-125v250c68.925 0 125-56.075 125-125z" fill="#ffc178"/><circle cx="297" cy="125" fill="#ffc178" r="95"/><path d="m392 125c0-52.383-42.617-95-95-95v190c52.383 0 95-42.617 95-95z" fill="#ff9d21"/><path d="m311.6 114.944c-1.741-.615-3.515-1.255-5.29-1.914v-32.311c3.055 1.126 4.645 2.657 4.872 2.888 3.638 4.104 9.909 4.514 14.051.905 4.164-3.627 4.6-9.944.972-14.108-3.323-3.815-10.186-8.595-19.895-10.276v-5.128c0-5.522-4.478-10-10-10s-10 4.478-10 10v6.224c-.616.163-1.238.336-1.865.525-11.853 3.57-20.705 13.689-23.102 26.407-2.199 11.671 1.59 22.963 9.889 29.472 3.917 3.073 8.691 5.889 15.078 8.817v42.231c-4.52-.635-7.905-2.167-13.306-5.7-4.622-3.026-10.82-1.727-13.843 2.894-3.023 4.622-1.729 10.819 2.894 13.843 9.488 6.207 16.181 8.388 24.255 9.086v6.201c0 5.522 4.478 10 10 10s10-4.478 10-10v-7.162c16.616-4.215 27.266-18.408 29.619-32.403 3.026-18.004-6.751-34.277-24.329-40.491zm-28.026-13.052c-2.365-1.854-3.376-5.792-2.577-10.031.579-3.073 2.261-6.615 5.312-8.956v20.913c-.984-.631-1.902-1.273-2.735-1.926zm32.631 50.228c-.911 5.42-4.271 11.118-9.896 14.339v-32.121c10.822 4.558 10.553 13.873 9.896 17.782z" fill="#fffa8c"/><path d="m311.6 114.944c-1.741-.615-3.515-1.255-5.29-1.914v-32.311c3.055 1.126 4.645 2.657 4.872 2.888 3.638 4.104 9.909 4.514 14.051.905 4.164-3.627 4.6-9.944.972-14.108-3.323-3.815-10.186-8.595-19.895-10.276v-5.128c0-5.289-4.111-9.609-9.31-9.965v159.93c5.199-.356 9.31-4.676 9.31-9.965v-7.162c16.616-4.215 27.266-18.408 29.619-32.403 3.026-18.004-6.751-34.277-24.329-40.491zm4.605 37.176c-.911 5.42-4.271 11.118-9.896 14.339v-32.121c10.822 4.558 10.553 13.873 9.896 17.782z" fill="#ffc178"/></g><g><g><g><path d="m485.06 281.449c-16.364-5.673-33.867-.546-44.586 13.059l-67.239 85.342c-8.588 10.899-21.471 17.15-35.347 17.15h-6.388c23.188 0 42.098-18.666 42.494-41.761.407-23.778-19.466-43.239-43.248-43.239h-105.978c-35.34-30.066-87.005-32.549-125.188-5.276l-17.58 12.557v162.719h115 157.307c34.842 0 67.322-17.212 86.885-46.042l63.897-94.164c4.521-6.662 6.911-14.44 6.911-22.494 0-17.321-10.575-32.179-26.94-37.851z" fill="#ffd5b2"/><path d="m485.06 281.449c-16.364-5.673-33.867-.546-44.586 13.059l-67.239 85.342c-8.588 10.899-21.471 17.15-35.347 17.15h-6.388c23.188 0 42.098-18.666 42.494-41.761.407-23.778-19.466-43.239-43.248-43.239h-74.746v170h98.307c34.842 0 67.322-17.212 86.885-46.042l63.897-94.164c4.521-6.662 6.911-14.44 6.911-22.494 0-17.321-10.575-32.179-26.94-37.851z" fill="#fac394"/><path d="m204 412c0 8.284 6.716 15 15 15h112.5c39.977 0 72.5-32.523 72.5-72.5 0-4.208-.381-8.325-1.072-12.338l-29.694 37.688c-8.588 10.899-21.471 17.15-35.347 17.15h-6.387-112.5c-8.284 0-15 6.716-15 15z" fill="#fac394"/><path d="m373.234 379.85c-8.588 10.899-21.471 17.15-35.347 17.15h-6.387-75.5v30h75.5c39.977 0 72.5-32.523 72.5-72.5 0-4.208-.381-8.325-1.072-12.338z" fill="#f0b47f"/></g><path d="m75 512h-60c-8.284 0-15-6.716-15-15v-200c0-8.284 6.716-15 15-15h60c8.284 0 15 6.716 15 15v200c0 8.284-6.716 15-15 15z" fill="#6ba7ff"/><path d="m75 512h-60c-8.284 0-15-6.716-15-15v-100h90v100c0 8.284-6.716 15-15 15z" fill="#347adf"/></g></g></g></svg>