<svg id="Capa_1" enable-background="new 0 0 512 512" height="512" viewBox="0 0 512 512" width="512" xmlns="http://www.w3.org/2000/svg"><g><path d="m401 452h-290v-66.557c0-29.684 8.249-58.72 23.854-83.971 11.04-17.864 25.42-33.28 42.291-45.472-16.871-12.192-31.251-27.609-42.291-45.472-15.605-25.251-23.854-54.287-23.854-83.971v-66.557h290v66.557c0 29.684-8.249 58.72-23.854 83.971-11.04 17.863-25.42 33.28-42.291 45.472 16.871 12.192 31.251 27.608 42.291 45.472 15.605 25.251 23.854 54.287 23.854 83.971z" fill="#f5f5ff"/><path d="m256 452h145v-66.557c0-29.684-8.249-58.72-23.854-83.971-11.04-17.864-25.42-33.28-42.291-45.472 16.871-12.192 31.251-27.609 42.291-45.472 15.605-25.251 23.854-54.287 23.854-83.971v-66.557h-145z" fill="#e2e7fa"/><path d="m141 452h230v-66.557c0-49.452-27.477-93.911-71.708-116.026-5.082-2.542-8.292-7.735-8.292-13.417s3.21-10.875 8.292-13.417c44.231-22.115 71.708-66.574 71.708-116.026v-66.557h-230v66.557c0 49.452 27.477 93.911 71.708 116.026 5.082 2.542 8.292 7.735 8.292 13.417s-3.21 10.875-8.292 13.417c-44.231 22.115-71.708 66.574-71.708 116.026z" fill="#e2e7fa"/><path d="m256 452h115v-66.557c0-49.452-27.477-93.911-71.708-116.026-5.082-2.542-8.292-7.735-8.292-13.417s3.21-10.875 8.292-13.417c44.231-22.115 71.708-66.574 71.708-116.026v-66.557h-115z" fill="#c5d2e5"/><path d="m256 343.08c-8.284 0-15-6.716-15-15v-114.16c0-8.284 6.716-15 15-15s15 6.716 15 15v114.16c0 8.284-6.716 15-15 15z" fill="#fffa8c"/><path d="m271 328.08v-114.16c0-8.284-6.716-15-15-15v144.16c8.284 0 15-6.716 15-15z" fill="#ffc178"/><path d="m340.48 405.75c-.008-.464-.037-.927-.088-1.388-3.703-33.698-24.085-62.899-54.518-78.11l-23.165-11.586c-4.223-2.113-9.197-2.113-13.42 0l-23.16 11.584c-30.438 15.213-50.819 44.414-54.522 78.112-.051.461-.08.924-.088 1.388l-.517 46.25h169.996z" fill="#fffa8c"/><path d="m256 228.92c-2.299 0-4.599-.528-6.711-1.584l-23.164-11.587c-26.632-13.311-45.762-37.494-52.48-66.346-1.038-4.457.016-9.144 2.861-12.729 2.846-3.584 7.172-5.673 11.748-5.673h135.492c4.576 0 8.902 2.089 11.748 5.673s3.899 8.271 2.861 12.729c-6.719 28.853-25.849 53.036-52.485 66.349l-23.159 11.585c-2.112 1.055-4.412 1.583-6.711 1.583z" fill="#fffa8c"/><path d="m340.998 452-.518-46.25c-.008-.464-.037-.927-.088-1.388-3.703-33.698-24.085-62.899-54.518-78.11l-23.165-11.586c-2.111-1.057-4.411-1.585-6.71-1.585v138.919z" fill="#ffc178"/><path d="m323.746 131h-67.746v97.92c2.299 0 4.599-.528 6.711-1.584l23.159-11.585c26.637-13.313 45.767-37.496 52.485-66.349 1.038-4.457-.016-9.144-2.861-12.729-2.846-3.584-7.172-5.673-11.748-5.673z" fill="#ffc178"/><path d="m396 512h-280c-19.33 0-35-15.67-35-35 0-19.33 15.67-35 35-35h280c19.33 0 35 15.67 35 35 0 19.33-15.67 35-35 35z" fill="#d8aa5c"/><path d="m396 70h-280c-19.33 0-35-15.67-35-35 0-19.33 15.67-35 35-35h280c19.33 0 35 15.67 35 35 0 19.33-15.67 35-35 35z" fill="#d8aa5c"/><g fill="#c8661c"><path d="m396 442h-140v70h140c19.33 0 35-15.67 35-35 0-19.33-15.67-35-35-35z"/><path d="m396 0h-140v70h140c19.33 0 35-15.67 35-35 0-19.33-15.67-35-35-35z"/></g></g></svg>